<?xml version="1.0" encoding="UTF-8" standalone="no"?>
<svg
   width="161.95956"
   zoomAndPan="magnify"
   viewBox="0 0 194.35155 59.969628"
   height="49.97467"
   preserveAspectRatio="xMidYMid"
   version="1.0"
   id="svg43"
   sodipodi:docname="curated-gifts-logo.svg"
   inkscape:version="1.3 (0e150ed6c4, 2023-07-21)"
   xmlns:inkscape="http://www.inkscape.org/namespaces/inkscape"
   xmlns:sodipodi="http://sodipodi.sourceforge.net/DTD/sodipodi-0.dtd"
   xmlns="http://www.w3.org/2000/svg"
   xmlns:svg="http://www.w3.org/2000/svg">
  <sodipodi:namedview
     id="namedview43"
     pagecolor="#ffffff"
     bordercolor="#000000"
     borderopacity="0.25"
     inkscape:showpageshadow="2"
     inkscape:pageopacity="0.0"
     inkscape:pagecheckerboard="false"
     inkscape:deskcolor="#d1d1d1"
     inkscape:zoom="1.8863213"
     inkscape:cx="134.12349"
     inkscape:cy="66.79668"
     inkscape:window-width="1920"
     inkscape:window-height="991"
     inkscape:window-x="-9"
     inkscape:window-y="-9"
     inkscape:window-maximized="1"
     inkscape:current-layer="svg43" />
  <defs
     id="defs1">
    <g
       id="g1" />
  </defs>
  <g
     fill="#032b43"
     fill-opacity="1"
     id="g4"
     transform="translate(-89.369698,-154.71228)">
    <g
       transform="translate(88.197823,198.74353)"
       id="g3">
      <g
         id="g2">
        <path
           d="m 17.046875,-19.609375 c -1.710937,0 -3.179687,0.632813 -4.40625,1.890625 -1.230469,1.261719 -1.84375,2.78125 -1.84375,4.5625 0,1.804688 0.613281,3.339844 1.84375,4.609375 1.226563,1.261719 2.695313,1.890625 4.40625,1.890625 0.820313,0 1.597656,-0.097656 2.328125,-0.296875 0.738281,-0.207031 1.28125,-0.414063 1.625,-0.625 l 0.453125,-0.3125 3.078125,6.296875 c -0.242188,0.179688 -0.574219,0.398438 -1,0.65625 -0.429688,0.25 -1.402344,0.59375 -2.921875,1.03125 -1.523437,0.445312 -3.152344,0.671875 -4.890625,0.671875 -3.855469,0 -7.246094,-1.351563 -10.171875,-4.0625 -2.917969,-2.71875 -4.375,-5.972656 -4.375,-9.765625 0,-3.820312 1.457031,-7.101562 4.375,-9.84375 2.925781,-2.75 6.316406,-4.125 10.171875,-4.125 1.738281,0 3.34375,0.203125 4.8125,0.609375 1.46875,0.40625 2.507812,0.820313 3.125,1.234375 l 0.875,0.609375 -3.078125,6.203125 c -1.125,-0.820312 -2.59375,-1.234375 -4.40625,-1.234375 z m 0,0"
           id="path1" />
      </g>
    </g>
  </g>
  <g
     fill="#032b43"
     fill-opacity="1"
     id="g7"
     transform="translate(-89.369698,-154.71228)">
    <g
       transform="translate(108.52252,198.74353)"
       id="g6">
      <g
         id="g5">
        <path
           d="m 11.625,-26.265625 v 12.484375 c 0,2.605469 0.390625,4.453125 1.171875,5.546875 0.789063,1.085937 2.125,1.625 4,1.625 1.875,0 3.203125,-0.539063 3.984375,-1.625 0.789062,-1.09375 1.1875,-2.941406 1.1875,-5.546875 v -12.484375 h 9.0625 v 14.6875 c 0,4.375 -1.136719,7.527344 -3.40625,9.453125 C 25.351562,-0.195312 21.742188,0.765625 16.796875,0.765625 11.847656,0.765625 8.238281,-0.195312 5.96875,-2.125 3.695312,-4.050781 2.5625,-7.203125 2.5625,-11.578125 v -14.6875 z m 0,0"
           id="path4" />
      </g>
    </g>
  </g>
  <g
     fill="#032b43"
     fill-opacity="1"
     id="g10"
     transform="translate(-89.369698,-154.71228)">
    <g
       transform="translate(137.2951,198.74353)"
       id="g9">
      <g
         id="g8">
        <path
           d="m 3.078125,0 v -26.265625 h 9.0625 v 3.78125 h 0.09375 c 0.07031,-0.132813 0.179687,-0.300781 0.328125,-0.5 0.15625,-0.207031 0.488281,-0.566406 1,-1.078125 0.519531,-0.507812 1.066406,-0.96875 1.640625,-1.375 0.582031,-0.414062 1.332031,-0.785156 2.25,-1.109375 0.925781,-0.320313 1.867187,-0.484375 2.828125,-0.484375 0.988281,0 1.957031,0.136719 2.90625,0.40625 0.957031,0.273438 1.660156,0.542969 2.109375,0.8125 l 0.71875,0.421875 -3.796875,7.671875 c -1.125,-0.957031 -2.695312,-1.4375 -4.703125,-1.4375 -1.09375,0 -2.039063,0.242188 -2.828125,0.71875 -0.78125,0.480469 -1.335938,1.0625 -1.65625,1.75 -0.324219,0.679688 -0.554688,1.257812 -0.6875,1.734375 -0.136719,0.480469 -0.203125,0.855469 -0.203125,1.125 V 0 Z m 0,0"
           id="path7" />
      </g>
    </g>
  </g>
  <g
     fill="#032b43"
     fill-opacity="1"
     id="g13"
     transform="translate(-89.369698,-154.71228)">
    <g
       transform="translate(157.9782,198.74353)"
       id="g12">
      <g
         id="g11">
        <path
           d="m 4.859375,-3.25 c -2.460937,-2.675781 -3.6875,-5.957031 -3.6875,-9.84375 0,-3.894531 1.226563,-7.191406 3.6875,-9.890625 2.457031,-2.695313 5.582031,-4.046875 9.375,-4.046875 3.476563,0 6.347656,1.089844 8.609375,3.265625 v -2.5 h 9.0625 V 0 H 22.9375 v -2.96875 h -0.09375 c -2.261719,2.492188 -5.132812,3.734375 -8.609375,3.734375 -3.792969,0 -6.917969,-1.335937 -9.375,-4.015625 z M 12.5625,-17.5625 c -1.179688,1.15625 -1.765625,2.640625 -1.765625,4.453125 0,1.8125 0.5625,3.292969 1.6875,4.4375 1.132813,1.136719 2.625,1.703125 4.46875,1.703125 1.769531,0 3.226563,-0.578125 4.375,-1.734375 1.144531,-1.164063 1.71875,-2.632813 1.71875,-4.40625 0,-1.8125 -0.589844,-3.296875 -1.765625,-4.453125 -1.179688,-1.15625 -2.621094,-1.734375 -4.328125,-1.734375 -1.742187,0 -3.203125,0.578125 -4.390625,1.734375 z m 0,0"
           id="path10" />
      </g>
    </g>
  </g>
  <g
     fill="#032b43"
     fill-opacity="1"
     id="g16"
     transform="translate(-89.369698,-154.71228)">
    <g
       transform="translate(188.13315,198.74353)"
       id="g15">
      <g
         id="g14">
        <path
           d="m 4.609375,-26.265625 v -9.78125 h 9.0625 v 9.78125 h 5.53125 v 6.90625 h -5.53125 v 8.34375 c 0,2.429687 0.679687,3.640625 2.046875,3.640625 0.34375,0 0.703125,-0.066406 1.078125,-0.203125 0.375,-0.132813 0.664063,-0.269531 0.875,-0.40625 l 0.296875,-0.203125 2.25,7.3125 C 18.28125,0.21875 16.0625,0.765625 13.5625,0.765625 11.863281,0.765625 10.398438,0.46875 9.171875,-0.125 7.941406,-0.726562 7.007812,-1.53125 6.375,-2.53125 5.738281,-3.539062 5.285156,-4.597656 5.015625,-5.703125 4.742188,-6.816406 4.609375,-8.003906 4.609375,-9.265625 v -10.09375 H 0.8125 v -6.90625 z m 0,0"
           id="path13" />
      </g>
    </g>
  </g>
  <g
     fill="#032b43"
     fill-opacity="1"
     id="g19"
     transform="translate(-89.369698,-154.71228)">
    <g
       transform="translate(203.54273,198.74353)"
       id="g18">
      <g
         id="g17">
        <path
           d="M 29.640625,-11.875 H 10.59375 c 0,1.84375 0.597656,3.210938 1.796875,4.09375 1.195313,0.886719 2.492187,1.328125 3.890625,1.328125 1.46875,0 2.628906,-0.191406 3.484375,-0.578125 0.851563,-0.394531 1.828125,-1.175781 2.921875,-2.34375 l 6.546875,3.28125 c -2.730469,4.574219 -7.273437,6.859375 -13.625,6.859375 -3.960937,0 -7.355469,-1.351563 -10.1875,-4.0625 -2.835937,-2.71875 -4.25,-5.988281 -4.25,-9.8125 0,-3.820313 1.414063,-7.097656 4.25,-9.828125 2.832031,-2.726562 6.226563,-4.09375 10.1875,-4.09375 4.164063,0 7.554687,1.203125 10.171875,3.609375 2.613281,2.40625 3.921875,5.84375 3.921875,10.3125 0,0.617187 -0.02344,1.027344 -0.0625,1.234375 z m -18.78125,-5.015625 h 9.984375 c -0.210938,-1.363281 -0.75,-2.410156 -1.625,-3.140625 -0.867188,-0.738281 -1.980469,-1.109375 -3.34375,-1.109375 -1.5,0 -2.699219,0.390625 -3.59375,1.171875 -0.886719,0.78125 -1.359375,1.808594 -1.421875,3.078125 z m 0,0"
           id="path16" />
      </g>
    </g>
  </g>
  <g
     fill="#032b43"
     fill-opacity="1"
     id="g22"
     transform="translate(-89.369698,-154.71228)">
    <g
       transform="translate(229.60174,198.74353)"
       id="g21">
      <g
         id="g20">
        <path
           d="m 4.859375,-3.25 c -2.460937,-2.675781 -3.6875,-5.957031 -3.6875,-9.84375 0,-3.894531 1.226563,-7.191406 3.6875,-9.890625 2.457031,-2.695313 5.582031,-4.046875 9.375,-4.046875 3.476563,0 6.347656,1.089844 8.609375,3.265625 V -44.03125 h 9.0625 V 0 H 22.9375 v -2.96875 h -0.09375 c -2.261719,2.492188 -5.132812,3.734375 -8.609375,3.734375 -3.792969,0 -6.917969,-1.335937 -9.375,-4.015625 z M 12.5625,-17.5625 c -1.179688,1.15625 -1.765625,2.640625 -1.765625,4.453125 0,1.8125 0.5625,3.292969 1.6875,4.4375 1.132813,1.136719 2.625,1.703125 4.46875,1.703125 1.769531,0 3.226563,-0.578125 4.375,-1.734375 1.144531,-1.164063 1.71875,-2.632813 1.71875,-4.40625 0,-1.8125 -0.589844,-3.296875 -1.765625,-4.453125 -1.179688,-1.15625 -2.621094,-1.734375 -4.328125,-1.734375 -1.742187,0 -3.203125,0.578125 -4.390625,1.734375 z m 0,0"
           id="path19" />
      </g>
    </g>
  </g>
  <g
     fill="#032b43"
     fill-opacity="1"
     id="g25"
     transform="translate(-89.369698,-154.71228)">
    <g
       transform="translate(259.7567,198.74353)"
       id="g24">
      <g
         id="g23" />
    </g>
  </g>
  <g
     fill="#ffffff"
     fill-opacity="1"
     id="g28"
     transform="translate(-89.369698,-154.71228)">
    <g
       transform="translate(268.92437,198.74353)"
       id="g27">
      <g
         id="g26">
        <path
           d="m 8.90625,-10.953125 c 1.632812,0 3.023438,0.574219 4.171875,1.71875 1.144531,1.136719 1.71875,2.527344 1.71875,4.171875 0,1.605469 -0.574219,2.980469 -1.71875,4.125 -1.148437,1.132812 -2.539063,1.703125 -4.171875,1.703125 -1.605469,0 -2.980469,-0.570313 -4.125,-1.703125 -1.136719,-1.144531 -1.703125,-2.519531 -1.703125,-4.125 0,-1.644531 0.566406,-3.035156 1.703125,-4.171875 1.144531,-1.144531 2.519531,-1.71875 4.125,-1.71875 z m 0,0"
           id="path25" />
      </g>
    </g>
  </g>
  <g
     fill="#032b43"
     fill-opacity="1"
     id="g31"
     transform="translate(-89.369698,-154.71228)">
    <g
       transform="translate(163.22157,212.61941)"
       id="g30">
      <g
         id="g29">
        <path
           d="m 5.25,-5.46875 c 0.144531,0 0.265625,0.046875 0.359375,0.140625 C 5.703125,-5.242188 5.75,-5.125 5.75,-4.96875 V -0.4375 C 5.75,0.125 5.628906,0.59375 5.390625,0.96875 5.148438,1.34375 4.828125,1.617188 4.421875,1.796875 4.015625,1.972656 3.554688,2.0625 3.046875,2.0625 2.773438,2.0625 2.453125,2.015625 2.078125,1.921875 1.710938,1.828125 1.476562,1.726562 1.375,1.625 1.164062,1.507812 1.0625,1.367188 1.0625,1.203125 c 0,-0.042969 0.015625,-0.09375 0.046875,-0.15625 0.070313,-0.179687 0.195313,-0.265625 0.375,-0.265625 0.09375,0 0.191406,0.019531 0.296875,0.0625 C 2.320312,1.0625 2.75,1.171875 3.0625,1.171875 c 0.550781,0 0.972656,-0.136719 1.265625,-0.40625 0.289063,-0.261719 0.4375,-0.621094 0.4375,-1.078125 V -0.875 C 4.617188,-0.601562 4.375,-0.367188 4.03125,-0.171875 3.695312,0.015625 3.335938,0.109375 2.953125,0.109375 2.484375,0.109375 2.050781,-0.0078125 1.65625,-0.25 1.269531,-0.5 0.960938,-0.835938 0.734375,-1.265625 0.515625,-1.691406 0.40625,-2.175781 0.40625,-2.71875 c 0,-0.53125 0.109375,-1.007812 0.328125,-1.4375 0.226563,-0.4375 0.535156,-0.773438 0.921875,-1.015625 0.382812,-0.238281 0.8125,-0.359375 1.28125,-0.359375 0.375,0 0.722656,0.089844 1.046875,0.265625 0.332031,0.167969 0.59375,0.375 0.78125,0.625 V -4.96875 c 0,-0.144531 0.039063,-0.265625 0.125,-0.359375 C 4.984375,-5.421875 5.101562,-5.46875 5.25,-5.46875 Z m -2.171875,4.671875 c 0.332031,0 0.628906,-0.082031 0.890625,-0.25 0.257812,-0.164063 0.460938,-0.394531 0.609375,-0.6875 C 4.734375,-2.023438 4.8125,-2.351562 4.8125,-2.71875 4.8125,-3.082031 4.734375,-3.40625 4.578125,-3.6875 4.429688,-3.976562 4.226562,-4.207031 3.96875,-4.375 3.707031,-4.539062 3.410156,-4.625 3.078125,-4.625 c -0.335937,0 -0.632813,0.085938 -0.890625,0.25 -0.261719,0.167969 -0.46875,0.398438 -0.625,0.6875 -0.148438,0.292969 -0.21875,0.617188 -0.21875,0.96875 0,0.367188 0.070312,0.695312 0.21875,0.984375 0.15625,0.292969 0.363281,0.523437 0.625,0.6875 0.257812,0.167969 0.554688,0.25 0.890625,0.25 z m 0,0"
           id="path28" />
      </g>
    </g>
  </g>
  <g
     fill="#032b43"
     fill-opacity="1"
     id="g34"
     transform="translate(-89.369698,-154.71228)">
    <g
       transform="translate(176.40037,212.61941)"
       id="g33">
      <g
         id="g32">
        <path
           d="m 1.65625,-0.5 c 0,0.148438 -0.046875,0.265625 -0.140625,0.359375 C 1.421875,-0.046875 1.304688,0 1.171875,0 1.023438,0 0.90625,-0.046875 0.8125,-0.140625 0.726562,-0.234375 0.6875,-0.351562 0.6875,-0.5 v -4.453125 c 0,-0.144531 0.039062,-0.265625 0.125,-0.359375 0.09375,-0.09375 0.210938,-0.140625 0.359375,-0.140625 0.132813,0 0.25,0.046875 0.34375,0.140625 0.09375,0.09375 0.140625,0.214844 0.140625,0.359375 z m -0.5,-5.640625 c -0.199219,0 -0.339844,-0.035156 -0.421875,-0.109375 -0.085937,-0.070312 -0.125,-0.1875 -0.125,-0.34375 V -6.75 c 0,-0.164062 0.046875,-0.28125 0.140625,-0.34375 0.09375,-0.070312 0.234375,-0.109375 0.421875,-0.109375 0.1875,0 0.320313,0.039063 0.40625,0.109375 0.09375,0.074219 0.140625,0.1875 0.140625,0.34375 v 0.15625 c 0,0.167969 -0.046875,0.289062 -0.140625,0.359375 -0.085937,0.0625 -0.226563,0.09375 -0.421875,0.09375 z m 0,0"
           id="path31" />
      </g>
    </g>
  </g>
  <g
     fill="#032b43"
     fill-opacity="1"
     id="g37"
     transform="translate(-89.369698,-154.71228)">
    <g
       transform="translate(185.45887,212.61941)"
       id="g36">
      <g
         id="g35">
        <path
           d="m 3.046875,-6.75 c -0.230469,0 -0.402344,0.074219 -0.515625,0.21875 -0.105469,0.136719 -0.15625,0.304688 -0.15625,0.5 v 0.71875 h 1.03125 c 0.132812,0 0.242188,0.046875 0.328125,0.140625 0.09375,0.085937 0.140625,0.1875 0.140625,0.3125 0,0.136719 -0.046875,0.246094 -0.140625,0.328125 -0.085937,0.085938 -0.195313,0.125 -0.328125,0.125 H 2.375 V -0.5 c 0,0.148438 -0.046875,0.265625 -0.140625,0.359375 C 2.148438,-0.046875 2.035156,0 1.890625,0 1.753906,0 1.640625,-0.046875 1.546875,-0.140625 1.453125,-0.234375 1.40625,-0.351562 1.40625,-0.5 V -4.40625 H 0.765625 c -0.136719,0 -0.25,-0.039062 -0.34375,-0.125 -0.085937,-0.082031 -0.125,-0.191406 -0.125,-0.328125 0,-0.125 0.039063,-0.226563 0.125,-0.3125 0.09375,-0.09375 0.207031,-0.140625 0.34375,-0.140625 H 1.40625 v -0.71875 c 0,-0.476562 0.148438,-0.859375 0.453125,-1.140625 0.3125,-0.289063 0.75,-0.4375 1.3125,-0.4375 0.238281,0 0.445313,0.042969 0.625,0.125 0.175781,0.085937 0.265625,0.214844 0.265625,0.390625 0,0.125 -0.042969,0.234375 -0.125,0.328125 -0.074219,0.085937 -0.167969,0.125 -0.28125,0.125 C 3.632812,-6.640625 3.5625,-6.65625 3.4375,-6.6875 3.28125,-6.726562 3.148438,-6.75 3.046875,-6.75 Z m 0,0"
           id="path34" />
      </g>
    </g>
  </g>
  <g
     fill="#032b43"
     fill-opacity="1"
     id="g40"
     transform="translate(-89.369698,-154.71228)">
    <g
       transform="translate(196.1964,212.61941)"
       id="g39">
      <g
         id="g38">
        <path
           d="m 2.203125,-4.4375 v 3.0625 c 0,0.34375 0.148437,0.515625 0.453125,0.515625 0.050781,0 0.117188,-0.007813 0.203125,-0.03125 0.082031,-0.019531 0.144531,-0.03125 0.1875,-0.03125 0.09375,0 0.171875,0.039063 0.234375,0.109375 0.0625,0.074219 0.09375,0.167969 0.09375,0.28125 0,0.148438 -0.085938,0.273438 -0.25,0.375 C 2.957031,-0.0507812 2.769531,0 2.5625,0 2.34375,0 2.132812,-0.0195312 1.9375,-0.0625 1.75,-0.113281 1.582031,-0.238281 1.4375,-0.4375 1.289062,-0.632812 1.21875,-0.929688 1.21875,-1.328125 V -4.4375 H 0.625 c -0.136719,0 -0.246094,-0.039062 -0.328125,-0.125 -0.085937,-0.09375 -0.125,-0.207031 -0.125,-0.34375 0,-0.125 0.039063,-0.226562 0.125,-0.3125 0.082031,-0.082031 0.191406,-0.125 0.328125,-0.125 h 0.59375 v -0.859375 c 0,-0.144531 0.046875,-0.265625 0.140625,-0.359375 0.09375,-0.09375 0.210937,-0.140625 0.359375,-0.140625 0.132812,0 0.25,0.046875 0.34375,0.140625 0.09375,0.09375 0.140625,0.214844 0.140625,0.359375 v 0.859375 h 0.84375 c 0.132813,0 0.242187,0.046875 0.328125,0.140625 0.082031,0.085937 0.125,0.1875 0.125,0.3125 0,0.136719 -0.042969,0.246094 -0.125,0.328125 -0.085938,0.085938 -0.195312,0.125 -0.328125,0.125 z m 0,0"
           id="path37" />
      </g>
    </g>
  </g>
  <g
     fill="#032b43"
     fill-opacity="1"
     id="g43"
     transform="translate(-89.369698,-154.71228)">
    <g
       transform="translate(206.83092,212.61941)"
       id="g42">
      <g
         id="g41">
        <path
           d="m 0.421875,-0.84375 c -0.0625,-0.09375 -0.09375,-0.1875 -0.09375,-0.28125 0,-0.132812 0.070313,-0.25 0.21875,-0.34375 0.070313,-0.050781 0.148437,-0.078125 0.234375,-0.078125 0.125,0 0.238281,0.054687 0.34375,0.15625 0.207031,0.230469 0.425781,0.40625 0.65625,0.53125 C 2.019531,-0.742188 2.304688,-0.6875 2.640625,-0.6875 2.898438,-0.695312 3.128906,-0.757812 3.328125,-0.875 3.523438,-0.988281 3.625,-1.171875 3.625,-1.421875 c 0,-0.238281 -0.105469,-0.414063 -0.3125,-0.53125 -0.199219,-0.125 -0.492188,-0.238281 -0.875,-0.34375 C 2.050781,-2.398438 1.726562,-2.507812 1.46875,-2.625 1.21875,-2.738281 1.003906,-2.898438 0.828125,-3.109375 0.648438,-3.328125 0.5625,-3.613281 0.5625,-3.96875 c 0,-0.3125 0.085938,-0.582031 0.265625,-0.8125 0.175781,-0.238281 0.410156,-0.421875 0.703125,-0.546875 0.289062,-0.132813 0.609375,-0.203125 0.953125,-0.203125 0.332031,0 0.660156,0.0625 0.984375,0.1875 0.320312,0.125 0.585938,0.3125 0.796875,0.5625 0.082031,0.105469 0.125,0.210938 0.125,0.3125 0,0.105469 -0.054687,0.210938 -0.15625,0.3125 -0.074219,0.0625 -0.164063,0.09375 -0.265625,0.09375 -0.125,0 -0.226562,-0.039062 -0.296875,-0.125 C 3.523438,-4.351562 3.347656,-4.476562 3.140625,-4.5625 2.929688,-4.65625 2.695312,-4.703125 2.4375,-4.703125 c -0.261719,0 -0.484375,0.054687 -0.671875,0.15625 C 1.585938,-4.441406 1.5,-4.257812 1.5,-4 c 0.00781,0.242188 0.113281,0.417969 0.3125,0.53125 0.207031,0.117188 0.519531,0.230469 0.9375,0.34375 0.363281,0.09375 0.664062,0.199219 0.90625,0.3125 0.238281,0.105469 0.441406,0.265625 0.609375,0.484375 0.164063,0.21875 0.25,0.507813 0.25,0.859375 0,0.324219 -0.09375,0.605469 -0.28125,0.84375 -0.1875,0.230469 -0.433594,0.414062 -0.734375,0.546875 -0.292969,0.125 -0.605469,0.1875 -0.9375,0.1875 -0.4375,0 -0.84375,-0.0742188 -1.21875,-0.21875 C 0.976562,-0.265625 0.671875,-0.507812 0.421875,-0.84375 Z m 0,0"
           id="path40" />
      </g>
    </g>
  </g>
</svg>
